<svg width="128" height="128" viewBox="0 0 128 128" fill="none" xmlns="http://www.w3.org/2000/svg">
<g clip-path="url(#clip0_14_29)">
<path d="M64 0C47.0261 0 30.7475 6.74284 18.7452 18.7452C6.74284 30.7475 0 47.0261 0 64C0 80.9739 6.74284 97.2525 18.7452 109.255C30.7475 121.257 47.0261 128 64 128C80.9739 128 97.2525 121.257 109.255 109.255C121.257 97.2525 128 80.9739 128 64C128 47.0261 121.257 30.7475 109.255 18.7452C97.2525 6.74284 80.9739 0 64 0V0ZM80.8693 116.176H80.3733C80.0008 116.197 79.6278 116.142 79.2775 116.013C78.9271 115.885 78.6067 115.686 78.336 115.429C78.0858 115.165 77.8909 114.853 77.7627 114.513C77.6345 114.172 77.5756 113.809 77.5893 113.445V105.947C77.6213 103.456 77.6427 100.933 77.6427 98.3947C77.6339 96.5383 77.3628 94.6925 76.8373 92.912C76.3395 91.1122 75.3364 89.4927 73.9467 88.2453C77.664 87.8865 81.3182 87.0419 84.816 85.7333C87.7665 84.6113 90.4353 82.8564 92.6347 80.592C94.8053 78.3147 96.4213 75.5627 97.3547 72.56C98.49 68.8828 99.0302 65.0477 98.9547 61.2C98.9755 58.5135 98.5055 55.8457 97.568 53.328C96.6153 50.7904 95.1749 48.4639 93.328 46.48C93.7267 45.4794 94.0164 44.4387 94.192 43.376C94.368 42.3093 94.4587 41.232 94.4587 40.1547C94.4587 38.768 94.2987 37.3813 93.9787 36.032C93.688 34.648 93.294 33.2878 92.8 31.9627C92.6114 31.8891 92.4104 31.8529 92.208 31.856H91.6213C90.3947 31.8667 89.1893 32.0693 88.0267 32.448C86.746 32.8218 85.4931 33.2852 84.2773 33.8347C83.0682 34.3766 81.8912 34.9874 80.752 35.664C79.6053 36.3413 78.592 36.992 77.696 37.5947C68.7239 35.094 59.2388 35.094 50.2667 37.5947C49.2661 36.9257 48.2489 36.282 47.216 35.664C46.0606 34.9817 44.8636 34.3725 43.632 33.84C42.4195 33.2723 41.1618 32.8067 39.872 32.448C38.7323 32.0715 37.5416 31.8718 36.3413 31.856H35.7547C35.554 31.8532 35.3548 31.8894 35.168 31.9627C34.667 33.2896 34.2572 34.6492 33.9413 36.032C33.6533 37.3867 33.5147 38.768 33.5093 40.1547C33.5093 41.232 33.6 42.3093 33.7813 43.376C33.9573 44.4373 34.24 45.4773 34.6347 46.48C32.7925 48.4666 31.3574 50.7949 30.4107 53.3333C29.4682 55.8502 28.9928 58.5179 29.008 61.2053C28.9334 65.0324 29.4589 68.8476 30.5653 72.512C31.5307 75.5147 33.1413 78.272 35.28 80.5973C37.4933 82.848 40.16 84.5973 43.0987 85.7387C46.5813 87.072 50.2293 87.9253 53.9413 88.2773C52.9049 89.2167 52.0827 90.3681 51.5307 91.6533C51.0055 92.9245 50.647 94.2582 50.464 95.6213C48.5071 96.5583 46.3669 97.0501 44.1973 97.0613C42.1825 97.142 40.1939 96.5818 38.5173 95.4613C36.909 94.2694 35.547 92.777 34.5067 91.0667C34.0411 90.3483 33.5204 89.6671 32.9493 89.0293C32.3469 88.3586 31.6826 87.7462 30.9653 87.2C30.2584 86.6717 29.4834 86.2412 28.6613 85.92C27.8525 85.5654 26.9791 85.382 26.096 85.3813C25.8827 85.3867 25.6693 85.408 25.456 85.4347C25.1647 85.4337 24.8744 85.4696 24.592 85.5413C24.3438 85.6063 24.1091 85.7146 23.8987 85.8613C23.803 85.9141 23.723 85.9912 23.6668 86.0849C23.6106 86.1785 23.5802 86.2854 23.5787 86.3947C23.6011 86.6513 23.6795 86.9 23.8086 87.123C23.9376 87.346 24.114 87.538 24.3253 87.6853C24.8213 88.08 25.232 88.384 25.5627 88.5973L25.7227 88.7093C26.432 89.2587 27.1147 89.8507 27.76 90.4853C28.3573 91.008 28.896 91.6 29.36 92.2453C29.84 92.88 30.256 93.5573 30.592 94.2773C30.9813 94.992 31.392 95.8133 31.824 96.7467C32.8267 99.2747 34.608 101.413 36.912 102.853C39.328 104.149 42.0373 104.795 44.784 104.725C45.712 104.725 46.6453 104.672 47.568 104.565C48.4853 104.416 49.3973 104.261 50.3147 104.08V113.376C50.3313 113.751 50.2686 114.125 50.1307 114.474C49.9929 114.823 49.7829 115.139 49.5146 115.401C49.2463 115.663 48.9257 115.866 48.5737 115.996C48.2218 116.126 47.8463 116.18 47.472 116.155H47.1413C34.7042 112.137 24.1102 103.811 17.267 92.6753C10.4238 81.5399 7.78115 68.3272 9.81483 55.4164C11.8485 42.5056 18.4249 30.7451 28.3598 22.2526C38.2948 13.7601 50.9353 9.09371 64.0053 9.09371C77.0753 9.09371 89.7159 13.7601 99.6508 22.2526C109.586 30.7451 116.162 42.5056 118.196 55.4164C120.23 68.3272 117.587 81.5399 110.744 92.6753C103.9 103.811 93.3065 112.137 80.8693 116.155V116.181V116.176Z" fill="#606060"/>
</g>
<defs>
<clipPath id="clip0_14_29">
<rect width="128" height="128" fill="white"/>
</clipPath>
</defs>
</svg>
