<svg width="128" height="128" viewBox="0 0 128 128" fill="none" xmlns="http://www.w3.org/2000/svg">
<path d="M64 128C99.3462 128 128 99.3462 128 64C128 28.6538 99.3462 0 64 0C28.6538 0 0 28.6538 0 64C0 99.3462 28.6538 128 64 128Z" fill="#FF4500"/>
<path d="M106.575 64.61C106.575 59.422 102.379 55.3015 97.2665 55.3015C94.8512 55.2982 92.528 56.2277 90.7815 57.896C84.3725 53.3175 75.5975 50.3425 65.8315 49.961L70.1035 29.9705L83.99 32.9455C84.1435 36.4555 87.042 39.279 90.629 39.279C94.291 39.279 97.2665 36.304 97.2665 32.64C97.2665 28.978 94.2915 26.0025 90.629 26.0025C88.035 26.0025 85.745 27.5285 84.677 29.7415L69.189 26.4605C68.731 26.3835 68.273 26.4605 67.9675 26.6895C67.586 26.9185 67.3575 27.2995 67.282 27.7575L62.55 50.0365C52.6315 50.3425 43.704 53.3175 37.219 57.9725C35.4723 56.3042 33.1489 55.3749 30.7335 55.3785C25.545 55.3785 21.425 59.574 21.425 64.687C21.425 68.5015 23.7135 71.7055 26.919 73.1565C26.7633 74.0894 26.6867 75.0337 26.69 75.9795C26.69 90.3225 43.4 101.997 64.0005 101.997C84.6015 101.997 101.311 90.3995 101.311 75.9795C101.311 75.0339 101.234 74.0898 101.082 73.1565C104.286 71.7055 106.575 68.4245 106.575 64.61V64.61ZM42.636 71.2475C42.636 67.5855 45.611 64.61 49.275 64.61C52.937 64.61 55.9125 67.585 55.9125 71.2475C55.9125 74.91 52.9375 77.8865 49.275 77.8865C45.6115 77.9615 42.636 74.91 42.636 71.2475ZM79.7945 88.873C75.2165 93.4515 66.518 93.757 64.0005 93.757C61.4065 93.757 52.7085 93.3745 48.2055 88.873C47.52 88.1865 47.52 87.118 48.2055 86.4315C48.8925 85.746 49.9605 85.746 50.6475 86.4315C53.5475 89.3315 59.6515 90.3225 64.0005 90.3225C68.35 90.3225 74.5295 89.331 77.3525 86.4315C78.0395 85.746 79.1075 85.746 79.7945 86.4315C80.4045 87.118 80.4045 88.1865 79.7945 88.873ZM78.573 77.962C74.9105 77.962 71.9355 74.987 71.9355 71.3245C71.9355 67.662 74.9105 64.687 78.573 64.687C82.2365 64.687 85.2115 67.662 85.2115 71.3245C85.2115 74.9095 82.2365 77.962 78.573 77.962Z" fill="white"/>
</svg>
